<?xml version="1.0" encoding="UTF-8"?>
<svg xmlns="http://www.w3.org/2000/svg" xmlns:xlink="http://www.w3.org/1999/xlink" width="25px" height="25px" viewBox="0 0 25 25" version="1.1">
<g id="surface1">
<path style=" stroke:none;fill-rule:nonzero;fill:rgb(0%,0%,0%);fill-opacity:1;" d="M 24.902344 12.886719 C 25.03125 12.644531 25.03125 12.355469 24.902344 12.113281 C 22.515625 7.71875 17.855469 4.734375 12.5 4.734375 C 7.144531 4.734375 2.484375 7.71875 0.0976562 12.113281 C -0.03125 12.355469 -0.03125 12.644531 0.0976562 12.886719 C 2.484375 17.28125 7.144531 20.265625 12.5 20.265625 C 17.855469 20.265625 22.515625 17.28125 24.902344 12.886719 Z M 12.5 18.457031 C 9.210938 18.457031 6.542969 15.789062 6.542969 12.5 C 6.542969 9.210938 9.210938 6.542969 12.5 6.542969 C 15.789062 6.542969 18.457031 9.210938 18.457031 12.5 C 18.457031 15.789062 15.789062 18.457031 12.5 18.457031 Z M 12.5 18.457031 "/>
<path style=" stroke:none;fill-rule:nonzero;fill:rgb(0%,0%,0%);fill-opacity:1;" d="M 12.5 9.464844 C 12.25 9.464844 12.007812 9.496094 11.773438 9.550781 C 12.011719 9.828125 12.15625 10.1875 12.15625 10.582031 C 12.15625 11.449219 11.449219 12.15625 10.582031 12.15625 C 10.1875 12.15625 9.828125 12.011719 9.550781 11.773438 C 9.496094 12.007812 9.464844 12.25 9.464844 12.5 C 9.464844 14.175781 10.824219 15.535156 12.5 15.535156 C 14.175781 15.535156 15.535156 14.175781 15.535156 12.5 C 15.535156 10.824219 14.175781 9.464844 12.5 9.464844 Z M 12.5 9.464844 "/>
</g>
</svg>
